<svg xmlns="http://www.w3.org/2000/svg" width="97" height="85" fill="none"><path fill="#D9D9D9" d="M89 0H8a8 8 0 0 0-8 8v69a8 8 0 0 0 8 8h81a8 8 0 0 0 8-8V8a8 8 0 0 0-8-8Z"/><path stroke="#C4C4C4" stroke-linecap="round" stroke-linejoin="round" stroke-width="1.8" d="M60.19 38.428v-4.58a3.048 3.048 0 0 0-3.038-3.048l-4.58-.013M60.19 47.57v4.572a3.048 3.048 0 0 1-3.047 3.047H52.57M43.43 30.787l-4.581.015a3.047 3.047 0 0 0-3.038 3.047v4.58m7.619 16.761h-4.572a3.048 3.048 0 0 1-3.047-3.047V47.57"/><path fill="#C4C4C4" d="M47.902 45.75c.625 0 1.157-.219 1.594-.656a2.17 2.17 0 0 0 .656-1.594 2.17 2.17 0 0 0-.656-1.594 2.171 2.171 0 0 0-1.594-.656c-.625 0-1.156.219-1.594.656a2.171 2.171 0 0 0-.656 1.594c0 .625.219 1.156.656 1.594.438.437.97.656 1.594.656Zm-4 1.75a.962.962 0 0 1-.706-.294.963.963 0 0 1-.294-.706v-6c0-.275.098-.51.294-.706a.962.962 0 0 1 .706-.294h1.575l.925-1h3l.925 1h1.575c.275 0 .51.098.707.294a.962.962 0 0 1 .293.706v6c0 .275-.098.51-.293.706a.964.964 0 0 1-.707.294h-8Z"/></svg>