<!-- Generated by IcoMoon.io -->
<svg version="1.1" xmlns="http://www.w3.org/2000/svg" width="32" height="32" viewBox="0 0 32 32">
<title>edit-pencil</title>
<path fill="none" stroke-linejoin="round" stroke-linecap="round" stroke-miterlimit="4" stroke-width="2.1895" d="M3.789 24.546c0.079-0.696 0.118-1.044 0.222-1.369 0.102-0.312 0.235-0.583 0.4-0.831l-0.008 0.012c0.189-0.286 0.438-0.532 0.933-1.027l17.331-17.331c0.683-0.682 1.625-1.103 2.666-1.103s1.984 0.422 2.666 1.103l-0-0c0.682 0.683 1.104 1.626 1.104 2.667s-0.422 1.984-1.104 2.667l-17.331 17.331c-0.495 0.493-0.743 0.741-1.027 0.93-0.236 0.157-0.506 0.29-0.795 0.386l-0.024 0.007c-0.325 0.106-0.674 0.145-1.369 0.222l-4.121 0.458 0.458-4.121z"></path>
</svg>
