<!-- Generated by IcoMoon.io -->
<svg version="1.1" xmlns="http://www.w3.org/2000/svg" width="32" height="32" viewBox="0 0 32 32">
<title>logo-header</title>
<path fill="#8baa36" d="M9.6 0h12.8c5.302 0 9.6 4.298 9.6 9.6v12.8c0 5.302-4.298 9.6-9.6 9.6h-12.8c-5.302 0-9.6-4.298-9.6-9.6v-12.8c0-5.302 4.298-9.6 9.6-9.6z"></path>
<path fill="none" stroke="#fafafa" stroke-linejoin="round" stroke-linecap="round" stroke-miterlimit="4" stroke-width="1.6" d="M7.039 7.117v4.072c0 1.162 0.507 2.192 1.294 2.858 0.384 0.326 0.638 0.766 0.638 1.254v6.797c0 0.756 0.65 1.369 1.45 1.369s1.45-0.613 1.45-1.368v-6.798c0-0.488 0.254-0.928 0.638-1.254 0.787-0.666 1.294-1.696 1.294-2.858v0M10.42 11.603v-4.563M23.466 8c0-0.504-0.432-0.913-0.966-0.913h-0.966c-1.602 0-2.899 1.226-2.899 2.738v5.476c0 1.19 0.808 2.193 1.933 2.57v4.227c0 0.756 0.649 1.369 1.449 1.369s1.45-0.613 1.45-1.368v-14.098z"></path>
</svg>
