<svg aria-hidden="true" style="position: absolute; width: 0; height: 0; overflow: hidden;" version="1.1" xmlns="http://www.w3.org/2000/svg" xmlns:xlink="http://www.w3.org/1999/xlink">
<defs>
<symbol id="icon-Error-logo" viewBox="0 0 32 32">
<path fill="#e74a3b" style="fill: var(--color1, #e74a3b)" d="M0 16c0-8.837 7.163-16 16-16s16 7.163 16 16-7.163 16-16 16-16-7.163-16-16zM10.938 13.006l2.944 2.938-2.944 2.992c-0.581 0.589-0.581 1.539 0 2.070 0.587 0.637 1.536 0.637 2.069 0l2.938-2.888 2.992 2.888c0.589 0.637 1.539 0.637 2.070 0 0.637-0.531 0.637-1.482 0-2.069l-2.888-2.994 2.888-2.938c0.637-0.531 0.637-1.482 0-2.069-0.531-0.581-1.482-0.581-2.069 0l-2.994 2.944-2.938-2.944c-0.531-0.581-1.482-0.581-2.069 0-0.581 0.587-0.581 1.536 0 2.069z"></path>
</symbol>
<symbol id="icon-facebook-logo" viewBox="0 0 30 32">
<path d="M30.476 16.091c0-8.465-6.824-15.33-15.238-15.33s-15.238 6.865-15.238 15.33c0 7.653 5.571 13.995 12.858 15.147v-10.712h-3.87v-4.434h3.87v-3.377c0-3.842 2.275-5.966 5.755-5.966 1.667 0 3.412 0.3 3.412 0.3v3.773h-1.923c-1.893 0-2.484 1.181-2.484 2.395v2.874h4.226l-0.675 4.434h-3.55v10.712c7.288-1.15 12.858-7.493 12.858-15.147z"></path>
</symbol>
<symbol id="icon-instagram-logo" viewBox="0 0 30 32">
<path d="M21.586 3.302c3.502 0.010 6.339 2.846 6.351 6.347v12.699c-0.010 3.504-2.848 6.341-6.35 6.351h-12.699c-3.502-0.012-6.338-2.849-6.348-6.35v-12.699c0.012-3.501 2.847-6.336 6.347-6.348h12.699zM21.586 0.762h-12.698c-4.888 0-8.888 4-8.888 8.888v12.698c0 4.89 4 8.89 8.888 8.89h12.698c4.89 0 8.89-4 8.89-8.89v-12.698c0-4.888-4-8.888-8.89-8.888z"></path>
<path d="M23.491 9.653c-1.052 0-1.905-0.853-1.905-1.905s0.853-1.905 1.905-1.905v0c1.052 0 1.905 0.853 1.905 1.905s-0.853 1.905-1.905 1.905v0zM15.238 10.923c0.026-0.001 0.057-0.001 0.088-0.001 2.806 0 5.080 2.275 5.080 5.080s-2.275 5.080-5.080 5.080c-0.031 0-0.062-0-0.093-0.001l0.005 0c-2.768-0.049-4.992-2.305-4.992-5.080s2.225-5.030 4.988-5.080l0.005-0zM15.238 8.384c-4.208 0-7.619 3.411-7.619 7.619s3.411 7.619 7.619 7.619v0c4.208 0 7.619-3.411 7.619-7.619s-3.411-7.619-7.619-7.619v0z"></path>
</symbol>
<symbol id="icon-Success-logo" viewBox="0 0 32 32">
<path fill="#3cbc81" style="fill: var(--color3, #3cbc81)" d="M0 16c0-8.837 7.163-16 16-16s16 7.163 16 16-7.163 16-16 16-16-7.163-16-16zM23.237 13.237c0.315-0.317 0.51-0.754 0.51-1.237s-0.195-0.92-0.511-1.237l0 0c-0.317-0.315-0.754-0.51-1.237-0.51s-0.92 0.195-1.237 0.511l-6.763 6.762-2.763-2.762c-0.317-0.315-0.754-0.51-1.237-0.51s-0.92 0.195-1.237 0.511l0-0c-0.315 0.317-0.51 0.754-0.51 1.237s0.195 0.92 0.511 1.237l4 4c0.317 0.315 0.754 0.51 1.237 0.51s0.92-0.195 1.237-0.511l8-8z"></path>
</symbol>
<symbol id="icon-twitter-logo" viewBox="0 0 38 32">
<path d="M37.647 4.51c-1.412 0.614-2.906 1.016-4.435 1.199 1.592-0.944 2.793-2.406 3.382-4.149l0.016-0.054c-1.413 0.842-3.058 1.483-4.809 1.828l-0.098 0.016c-1.419-1.486-3.415-2.409-5.626-2.409-0.004 0-0.008 0-0.012 0h0.001c-4.267 0-7.723 3.403-7.723 7.599-0.004 0.584 0.064 1.167 0.2 1.734-6.415-0.309-12.070-3.319-15.894-7.908l-0.029-0.035c-0.658 1.092-1.048 2.41-1.050 3.819v0.001c0 2.635 1.374 4.964 3.452 6.328-1.294-0.031-2.5-0.379-3.553-0.969l0.039 0.020v0.094c0 3.686 2.665 6.752 6.197 7.45-0.61 0.169-1.311 0.267-2.035 0.267h-0c-0.489 0-0.975-0.047-1.453-0.141 0.983 3.019 3.838 5.214 7.221 5.278-2.615 2.032-5.944 3.258-9.56 3.258-0.661 0-1.312-0.041-1.952-0.12l0.076 0.008c3.328 2.155 7.396 3.435 11.763 3.435 0.020 0 0.041-0 0.061-0h-0.003c14.227 0 21.997-11.584 21.997-21.632 0-0.329-0.009-0.659-0.024-0.979 1.516-1.088 2.794-2.393 3.819-3.887l0.034-0.053z"></path>
</symbol>
<symbol id="icon-youtube-logo" viewBox="0 0 43 32">
<path d="M42.394 7.066c0-3.75-2.761-6.767-6.17-6.767-4.020-0.191-8.732-0.299-13.47-0.299-0.234 0-0.468 0-0.702 0.001l0.036-0h-1.502c-4.8 0-9.519 0.085-14.135 0.299-3.401 0-6.159 3.036-6.159 6.784-0.209 2.965-0.299 5.933-0.292 8.9-0.009 2.965 0.085 5.935 0.284 8.907 0 3.75 2.758 6.793 6.159 6.793 4.851 0.224 9.826 0.324 14.886 0.316 5.067 0.017 10.027-0.090 14.884-0.316 3.409 0 6.167-3.042 6.167-6.793 0.181-2.545 0.284-5.514 0.284-8.507 0-0.144-0-0.288-0.001-0.432l0 0.022c0.002-0.229 0.002-0.501 0.002-0.772 0-2.862-0.099-5.701-0.294-8.514l0.021 0.379zM17.252 24.156v-16.373l12.085 8.183-12.085 8.192z"></path>
</symbol>
<symbol id="icon-logo" viewBox="0 0 32 32">
<path fill="#ebf3d4" style="fill: var(--color1, #ebf3d4)" d="M8.727-0h14.545c4.82 0 8.727 3.907 8.727 8.727v14.545c0 4.82-3.907 8.727-8.727 8.727h-14.545c-4.82 0-8.727-3.907-8.727-8.727v-14.545c0-4.82 3.907-8.727 8.727-8.727z"></path><path fill="none" stroke="#8baa36" style="stroke: var(--color2, #8baa36)" stroke-linejoin="round" stroke-linecap="round" stroke-miterlimit="4" stroke-width="2.1818" d="M7.818 7.894v4.056c0 1.158 0.477 2.184 1.217 2.847 0.362 0.325 0.601 0.763 0.601 1.249v6.771c0 0.753 0.611 1.364 1.364 1.364s1.364-0.611 1.364-1.364v-6.771c0-0.486 0.239-0.925 0.601-1.249 0.74-0.664 1.217-1.689 1.217-2.847v0"></path><path fill="none" stroke="#8baa36" style="stroke: var(--color2, #8baa36)" stroke-linejoin="round" stroke-linecap="round" stroke-miterlimit="4" stroke-width="2.1818" d="M11 12.364v-4.545"></path><path fill="none" stroke="#8baa36" style="stroke: var(--color2, #8baa36)" stroke-linejoin="round" stroke-linecap="round" stroke-miterlimit="4" stroke-width="2.1818" d="M23.273 8.774c0-0.502-0.407-0.909-0.909-0.909h-0.909c-1.506 0-2.727 1.221-2.727 2.727v5.455c0 1.185 0.761 2.184 1.818 2.56v4.211c0 0.753 0.611 1.364 1.364 1.364s1.364-0.611 1.364-1.364v-14.044z"></path>
</symbol>
<symbol id="icon-logo-header" viewBox="0 0 32 32">
<path fill="#8baa36" style="fill: var(--color1, #8baa36)" d="M9.6 0h12.8c5.302 0 9.6 4.298 9.6 9.6v12.8c0 5.302-4.298 9.6-9.6 9.6h-12.8c-5.302 0-9.6-4.298-9.6-9.6v-12.8c0-5.302 4.298-9.6 9.6-9.6z"></path>
<path fill="none" stroke="#fafafa" style="stroke: var(--color2, #fafafa)" stroke-linejoin="round" stroke-linecap="round" stroke-miterlimit="4" stroke-width="1.6" d="M7.039 7.117v4.072c0 1.162 0.507 2.192 1.294 2.858 0.384 0.326 0.638 0.766 0.638 1.254v6.797c0 0.756 0.65 1.369 1.45 1.369s1.45-0.613 1.45-1.368v-6.798c0-0.488 0.254-0.928 0.638-1.254 0.787-0.666 1.294-1.696 1.294-2.858v0M10.42 11.603v-4.563M23.466 8c0-0.504-0.432-0.913-0.966-0.913h-0.966c-1.602 0-2.899 1.226-2.899 2.738v5.476c0 1.19 0.808 2.193 1.933 2.57v4.227c0 0.756 0.649 1.369 1.449 1.369s1.45-0.613 1.45-1.368v-14.098z"></path>
</symbol>
<symbol id="icon-search" viewBox="0 0 32 32">
<path stroke-linejoin="round" stroke-linecap="round" stroke-miterlimit="4" stroke-width="2.6667" d="M14.667 25.333c5.891 0 10.667-4.776 10.667-10.667s-4.776-10.667-10.667-10.667v0c-5.891 0-10.667 4.776-10.667 10.667s4.776 10.667 10.667 10.667v0zM28 28l-5.8-5.8"></path>
</symbol>
<symbol id="icon-exit" viewBox="0 0 32 32">
<path stroke-linejoin="round" stroke-linecap="round" stroke-miterlimit="4" stroke-width="2.6667" d="M25 7l-18 18M25 25l-18-18"></path>
</symbol>
<symbol id="icon-edit-pencil" viewBox="0 0 32 32">
<path stroke-linejoin="round" stroke-linecap="round" stroke-miterlimit="4" stroke-width="2.1895" d="M3.789 24.546c0.079-0.696 0.118-1.044 0.222-1.369 0.102-0.312 0.235-0.583 0.4-0.831l-0.008 0.012c0.189-0.286 0.438-0.532 0.933-1.027l17.331-17.331c0.683-0.682 1.625-1.103 2.666-1.103s1.984 0.422 2.666 1.103l-0-0c0.682 0.683 1.104 1.626 1.104 2.667s-0.422 1.984-1.104 2.667l-17.331 17.331c-0.495 0.493-0.743 0.741-1.027 0.93-0.236 0.157-0.506 0.29-0.795 0.386l-0.024 0.007c-0.325 0.106-0.674 0.145-1.369 0.222l-4.121 0.458 0.458-4.121z"></path>
</symbol>
<symbol id="icon-burger" viewBox="0 0 32 32">
<path stroke-linejoin="round" stroke-linecap="round" stroke-miterlimit="4" stroke-width="2.5" d="M4 16h24M4 8h24M4 24h16"></path>
</symbol>
<symbol id="icon-arrow-right" viewBox="0 0 40 32">
<path fill="none" stroke-linejoin="round" stroke-linecap="round" stroke-miterlimit="4" stroke-width="4" d="M4 16h32M36 16l-12-12M36 16l-12 12"></path>
</symbol>
<symbol id="icon-add-photo" viewBox="0 0 32 32">
<path fill="#8baa36" style="fill: var(--color1, #8baa36)" d="M32 16c0 8.837-7.163 16-16 16s-16-7.163-16-16c0-8.837 7.163-16 16-16s16 7.163 16 16z"></path>
<path fill="none" stroke="#fafafa" style="stroke: var(--color2, #fafafa)" stroke-linejoin="round" stroke-linecap="round" stroke-miterlimit="4" stroke-width="2.6667" d="M16 9v14M9 16h14"></path>
</symbol>
<symbol id="icon-clock" viewBox="0 0 32 32">
<path d="M20.586 23.414l-6.586-6.586v-8.828h4v7.172l5.414 5.414zM16 0c-8.837 0-16 7.163-16 16s7.163 16 16 16 16-7.163 16-16-7.163-16-16-16zM16 28c-6.627 0-12-5.373-12-12s5.373-12 12-12c6.627 0 12 5.373 12 12s-5.373 12-12 12z"></path>
</symbol>
<symbol id="icon-email-icon-for-footer" viewBox="0 0 37 32">
<path d=""></path>
</symbol>
</defs>
</svg>
