<svg viewBox="0 0 300 289" fill="none" xmlns="http://www.w3.org/2000/svg">
<rect x="0" y="0" width="100%" height="100%" rx="8"/>
<path d="M168.625 131.638V121.788C168.625 120.053 167.937 118.389 166.712 117.16C165.487 115.932 163.825 115.239 162.09 115.234L152.24 115.204M168.625 151.3V161.131C168.625 162.87 167.934 164.537 166.705 165.766C165.476 166.995 163.809 167.685 162.071 167.685H152.24M132.577 115.204L122.727 115.237C120.992 115.242 119.33 115.935 118.105 117.163C116.88 118.392 116.192 120.056 116.192 121.791V131.638M132.577 167.685H122.746C121.008 167.685 119.341 166.995 118.112 165.766C116.883 164.537 116.192 162.87 116.192 161.131V151.3" stroke="#C4C4C4" stroke-width="2" stroke-linecap="round" stroke-linejoin="round"/>
<path d="M142.204 147.383C143.548 147.383 144.691 146.913 145.632 145.972C146.572 145.031 147.043 143.889 147.043 142.544C147.043 141.2 146.572 140.058 145.632 139.116C144.691 138.176 143.548 137.706 142.204 137.706C140.86 137.706 139.717 138.176 138.776 139.116C137.835 140.058 137.365 141.2 137.365 142.544C137.365 143.889 137.835 145.031 138.776 145.972C139.717 146.913 140.86 147.383 142.204 147.383ZM133.602 151.147C133.01 151.147 132.504 150.936 132.083 150.515C131.662 150.094 131.451 149.587 131.451 148.996V136.093C131.451 135.501 131.662 134.995 132.083 134.575C132.504 134.153 133.01 133.942 133.602 133.942H136.989L138.978 131.792H145.43L147.419 133.942H150.806C151.397 133.942 151.904 134.153 152.325 134.575C152.746 134.995 152.957 135.501 152.957 136.093V148.996C152.957 149.587 152.746 150.094 152.325 150.515C151.904 150.936 151.397 151.147 150.806 151.147H133.602Z" fill="#C4C4C4"/>
</svg>